<svg width="44" height="50" viewBox="0 0 44 50" fill="none" xmlns="http://www.w3.org/2000/svg">
<g filter="url(#filter0_i_34_19)">
<path d="M28.1735 26.0154C32.7385 27.532 36.7481 30.6889 39.6014 35.0129C42.4546 39.337 43.9979 44.5953 44 50H0C0.000975577 44.595 1.54386 39.3361 4.39729 35.0118C7.25072 30.6875 11.2609 27.5309 15.8265 26.0154L22 36.5385L28.1735 26.0154ZM33 12.5C33 15.8152 31.8411 18.9946 29.7782 21.3388C27.7153 23.683 24.9174 25 22 25C19.0826 25 16.2847 23.683 14.2218 21.3388C12.1589 18.9946 11 15.8152 11 12.5C11 9.18479 12.1589 6.00537 14.2218 3.66116C16.2847 1.31696 19.0826 0 22 0C24.9174 0 27.7153 1.31696 29.7782 3.66116C31.8411 6.00537 33 9.18479 33 12.5Z" fill="#025EA1"/>
</g>
<defs>
<filter id="filter0_i_34_19" x="0" y="0" width="44" height="54" filterUnits="userSpaceOnUse" color-interpolation-filters="sRGB">
<feFlood flood-opacity="0" result="BackgroundImageFix"/>
<feBlend mode="normal" in="SourceGraphic" in2="BackgroundImageFix" result="shape"/>
<feColorMatrix in="SourceAlpha" type="matrix" values="0 0 0 0 0 0 0 0 0 0 0 0 0 0 0 0 0 0 127 0" result="hardAlpha"/>
<feOffset dy="4"/>
<feGaussianBlur stdDeviation="2"/>
<feComposite in2="hardAlpha" operator="arithmetic" k2="-1" k3="1"/>
<feColorMatrix type="matrix" values="0 0 0 0 0 0 0 0 0 0 0 0 0 0 0 0 0 0 0.25 0"/>
<feBlend mode="normal" in2="shape" result="effect1_innerShadow_34_19"/>
</filter>
</defs>
</svg>
